<svg width="70" height="70" viewBox="0 0 70 70" fill="none" xmlns="http://www.w3.org/2000/svg">
<path d="M37.2888 51.2778C37.5947 51.5827 37.8375 51.9449 38.0031 52.3437C38.1687 52.7426 38.2539 53.1702 38.2539 53.602C38.2539 54.0339 38.1687 54.4615 38.0031 54.8604C37.8375 55.2592 37.5947 55.6214 37.2888 55.9263L35.6646 57.5505C32.5869 60.6282 28.4125 62.3573 24.0599 62.3573C19.7073 62.3573 15.533 60.6282 12.4553 57.5505C9.3775 54.4727 7.64844 50.2984 7.64844 45.9458C7.64844 41.5932 9.3775 37.4189 12.4553 34.3411L19.0506 27.7485C22.0078 24.784 25.9865 23.0624 30.1719 22.9363C34.3572 22.8103 38.4324 24.2893 41.5627 27.0704C41.8859 27.3577 42.1493 27.7058 42.3379 28.0948C42.5266 28.4839 42.6367 28.9063 42.6621 29.338C42.6875 29.7696 42.6276 30.2021 42.4859 30.6106C42.3442 31.0191 42.1234 31.3957 41.8361 31.7188C41.5488 32.042 41.2007 32.3054 40.8117 32.4941C40.4226 32.6827 40.0002 32.7929 39.5685 32.8183C39.1369 32.8437 38.7045 32.7838 38.296 32.6421C37.8874 32.5003 37.5109 32.2795 37.1877 31.9923C35.3106 30.3252 32.8675 29.4383 30.3581 29.513C27.8487 29.5878 25.4627 30.6184 23.6881 32.3942L17.0982 38.9786C15.2519 40.825 14.2146 43.3292 14.2146 45.9403C14.2146 48.5515 15.2519 51.0557 17.0982 52.902C18.9446 54.7484 21.4488 55.7857 24.0599 55.7857C26.6711 55.7857 29.1753 54.7484 31.0217 52.902L32.6459 51.2778C32.9506 50.9727 33.3125 50.7307 33.7108 50.5656C34.1092 50.4005 34.5362 50.3155 34.9674 50.3155C35.3986 50.3155 35.8255 50.4005 36.2239 50.5656C36.6222 50.7307 36.9841 50.9727 37.2888 51.2778ZM57.5451 12.4497C54.4648 9.37668 50.2914 7.65088 45.9404 7.65088C41.5894 7.65088 37.416 9.37668 34.3357 12.4497L32.7115 14.0739C32.0951 14.6903 31.7488 15.5264 31.7488 16.3981C31.7488 17.2699 32.0951 18.1059 32.7115 18.7224C33.3279 19.3388 34.164 19.6851 35.0357 19.6851C35.9075 19.6851 36.7435 19.3388 37.3599 18.7224L38.9842 17.0981C40.8305 15.2518 43.3347 14.2145 45.9459 14.2145C48.557 14.2145 51.0612 15.2518 52.9076 17.0981C54.754 18.9445 55.7912 21.4487 55.7912 24.0599C55.7912 26.671 54.754 29.1752 52.9076 31.0216L46.315 37.6169C44.5389 39.3919 42.1515 40.4211 39.6415 40.4938C37.1315 40.5665 34.6886 39.6772 32.8127 38.0079C32.4895 37.7206 32.1129 37.4998 31.7044 37.3581C31.2959 37.2164 30.8635 37.1565 30.4318 37.1819C30.0002 37.2073 29.5778 37.3174 29.1887 37.5061C28.7996 37.6947 28.4515 37.9582 28.1642 38.2813C27.877 38.6045 27.6562 38.9811 27.5145 39.3896C27.3727 39.7981 27.3128 40.2305 27.3382 40.6622C27.3636 41.0938 27.4738 41.5163 27.6624 41.9053C27.8511 42.2944 28.1145 42.6425 28.4377 42.9298C31.5658 45.7103 35.6382 47.1902 39.8216 47.0667C44.005 46.9432 47.983 45.2255 50.9416 42.2653L57.5369 35.6727C60.6135 32.5932 62.3424 28.4187 62.3439 24.0657C62.3454 19.7126 60.6195 15.5369 57.5451 12.4552V12.4497Z" fill="#C9CED6"/>
</svg>
